<?xml version="1.0" encoding="utf-8"?>
<!-- Generator: Adobe Illustrator 21.0.0, SVG Export Plug-In . SVG Version: 6.00 Build 0)  -->
<svg version="1.1" baseProfile="tiny" id="Warstwa_2"
	 xmlns="http://www.w3.org/2000/svg" xmlns:xlink="http://www.w3.org/1999/xlink" x="0px" y="0px" viewBox="130 160 270 70"
	 xml:space="preserve">
<g>
	<g>
		<path fill="#FFFFFF" d="M144.1,216.4v10.2h-9.8v-36.2h6.2l1.5,3.9h0.4c0,0,2.2-4.6,8.9-4.6c7.5,0,13.2,5.7,13.2,14.9
			c0,8.9-5.5,15-12.9,15c-5.6,0-7.1-3.3-7.1-3.3H144.1z M149.1,211.6c3.3,0,5.5-2.8,5.5-6.9c0-4.1-2.2-7-5.5-7c-3.4,0-5.5,2.8-5.5,7
			C143.6,209,145.7,211.6,149.1,211.6z"/>
		<path fill="#FFFFFF" d="M186.8,198.7h-1.5c-3.6,0-6,2.4-6,6.5V219h-9.8v-28.6h5.9l1.6,3.9h0.4c1.6-2.7,4.1-3.9,7.9-3.9h1.5V198.7z
			"/>
		<path fill="#FFFFFF" d="M215.8,216.3c0,0-3.6,3.5-11,3.5c-9.9,0-15.7-6.7-15.7-15.2c0-8.6,6-15,14.6-15c8.4,0,13.6,5.4,13.6,14.2
			c0,1-0.1,2.7-0.1,2.7h-18.6c0.5,3.9,2.9,5.5,6.9,5.5c4.1,0,7-2.2,7-2.2L215.8,216.3z M198.7,201.4h9.2c-0.1-2.7-1.7-4.6-4.5-4.6
			C201.1,196.8,199.3,198.3,198.7,201.4z"/>
		<path fill="#FFFFFF" d="M240.9,193v-15.2h9.8V219h-6.4l-1.6-3.7h-0.4c0,0-2.1,4.4-8.6,4.4c-7.6,0-13.3-5.7-13.3-14.9
			c0-8.9,5.5-15,12.9-15c5.4,0,7.1,3.3,7.1,3.3H240.9z M235.9,197.8c-3.3,0-5.5,2.8-5.5,6.9c0,4.1,2.2,7,5.5,7c3.5,0,5.6-2.8,5.6-7
			S239.3,197.8,235.9,197.8z"/>
		<path fill="#FFFFFF" d="M256.8,181.4c0-3.1,2.4-5.4,5.5-5.4c3.1,0,5.6,2.2,5.6,5.4s-2.5,5.3-5.6,5.3
			C259.2,186.7,256.8,184.6,256.8,181.4z M257.4,190.4h9.8V219h-9.8V190.4z"/>
		<path fill="#FFFFFF" d="M272.2,204.7c0-8.5,6.1-15,15.5-15c5.9,0,9,2.6,9,2.6l-2.4,7c0,0-2.6-1.6-5.7-1.6c-3.9,0-6.5,2.7-6.5,6.9
			s2.7,6.9,6.5,6.9c3.1,0,5.7-1.6,5.7-1.6l2.4,6.9c0,0-3.1,2.7-9,2.7C278.2,219.6,272.2,213.1,272.2,204.7z"/>
		<path fill="#FFFFFF" d="M303.7,190.4v-8.7h9.8v8.7h6.4v7.5h-6.4v10.8c0,1.6,0.8,2.5,2.6,2.5c1.4,0,2.5-0.8,2.5-0.8l2.7,6.7
			c-1.8,1.4-4.9,2.5-7.9,2.5c-7,0-9.7-4.5-9.7-10.4V198H299v-7.5H303.7z"/>
		<path fill="#FFFFFF" d="M350.1,216.3c0,0-3.6,3.5-11,3.5c-9.9,0-15.7-6.7-15.7-15.2c0-8.6,6-15,14.6-15c8.4,0,13.6,5.4,13.6,14.2
			c0,1-0.1,2.7-0.1,2.7h-18.6c0.5,3.9,2.9,5.5,6.9,5.5c4.1,0,7-2.2,7-2.2L350.1,216.3z M333,201.4h9.2c-0.1-2.7-1.7-4.6-4.5-4.6
			C335.4,196.8,333.6,198.3,333,201.4z"/>
		<path fill="#FFFFFF" d="M357.7,210c0,0,4.6,2.8,9,2.8c2.5,0,3.3-0.7,3.3-1.7c0-3.7-14.8-1.2-14.8-12.4c0-5.1,4.1-9,11.8-9
			c8.6,0,13,2.6,13,2.6l-2.8,7c0,0-4-2.6-9-2.6c-1.9,0-3,0.5-3,1.6c0,3.6,15.2,0.9,15.2,12.2c0,5.2-3.8,9.1-13.1,9.1
			c-8.8,0-12.6-3-12.6-3L357.7,210z"/>
	</g>
	<polygon fill="#FA3542" points="396,184.8 396,198.3 374,176.3 374,162.8 	"/>
</g>
</svg>
